# xmcd
#
# Track frame offsets:
#	150
#	13047
#	32839
#	43111
#	56531
#	69162
#	83481
#	95279
#	110852
#	124177
#	137566
#	148120
#	163808
#	180332
#	193096
#	205433
#
# Disc length: 2917 seconds
#
# Revision: 1
# Processed by: cddbd v1.5.2PL0 Copyright (c) Steve Scherf et al.
# Submitted via: audiograbber 1.83.01
#
DISCID=e10b6310
DTITLE=Nashville Session singers - Country Music Christmas
DYEAR=1900
DGENRE=Christmas
TTITLE0=C.h.r.i.s.t.m.a.s
TTITLE1=Tennessee  Christmas
TTITLE2=e need a little Christmas
TTITLE3=Christmas time's a-comin'
TTITLE4=How do I wrap my heart up for Christmas
TTITLE5=A Christmas letter
TTITLE6=Til Santa's gone
TTITLE7=Christmas to remember
TTITLE8=I only want you for Christmas
TTITLE9=Rockin' little Christmas
TTITLE10=Santa looked a lot like daddy
TTITLE11=Christmas in Dixie
TTITLE12=Hard candy Christmas
TTITLE13=Old Christmas card
TTITLE14=If we make it through December
TTITLE15=I'll be home for Christmas
EXTD=
EXTT0=
EXTT1=
EXTT2=
EXTT3=
EXTT4=
EXTT5=
EXTT6=
EXTT7=
EXTT8=
EXTT9=
EXTT10=
EXTT11=
EXTT12=
EXTT13=
EXTT14=
EXTT15=
PLAYORDER=
